<svg width="185" height="54" viewBox="0 0 185 54" fill="none" xmlns="http://www.w3.org/2000/svg">
<path d="M30.2083 10.125V14.625C30.2083 17.1 32.0833 19.125 34.375 19.125H38.5417M20.8333 29.25L16.6667 33.75L20.8333 38.25M29.1667 29.25L33.3333 33.75L29.1667 38.25M43.75 15.75V38.25C43.75 45 40.625 49.5 33.3333 49.5H16.6667C9.375 49.5 6.25 45 6.25 38.25V15.75C6.25 9 9.375 4.5 16.6667 4.5H33.3333C40.625 4.5 43.75 9 43.75 15.75Z" stroke="#00059C" stroke-width="1.5" stroke-miterlimit="10" stroke-linecap="round" stroke-linejoin="round"/>
<path d="M62.3418 28.6357H56.6436V26.3359H62.3418C63.4453 26.3359 64.3389 26.1602 65.0225 25.8086C65.7061 25.457 66.2041 24.9688 66.5166 24.3438C66.8389 23.7188 67 23.0059 67 22.2051C67 21.4727 66.8389 20.7842 66.5166 20.1396C66.2041 19.4951 65.7061 18.9775 65.0225 18.5869C64.3389 18.1865 63.4453 17.9863 62.3418 17.9863H57.3027V37H54.4756V15.6719H62.3418C63.9531 15.6719 65.3154 15.9502 66.4287 16.5068C67.542 17.0635 68.3867 17.835 68.9629 18.8213C69.5391 19.7979 69.8271 20.916 69.8271 22.1758C69.8271 23.543 69.5391 24.71 68.9629 25.6768C68.3867 26.6436 67.542 27.3809 66.4287 27.8887C65.3154 28.3867 63.9531 28.6357 62.3418 28.6357ZM79.1729 37H74.7197L74.749 34.7002H79.1729C80.6963 34.7002 81.9658 34.3828 82.9814 33.748C83.9971 33.1035 84.7588 32.2051 85.2666 31.0527C85.7842 29.8906 86.043 28.5332 86.043 26.9805V25.6768C86.043 24.4561 85.8965 23.3721 85.6035 22.4248C85.3105 21.4678 84.8809 20.6621 84.3145 20.0078C83.748 19.3438 83.0547 18.8408 82.2344 18.499C81.4238 18.1572 80.4912 17.9863 79.4365 17.9863H74.6318V15.6719H79.4365C80.833 15.6719 82.1074 15.9062 83.2598 16.375C84.4121 16.834 85.4033 17.5029 86.2334 18.3818C87.0732 19.251 87.7178 20.3057 88.167 21.5459C88.6162 22.7764 88.8408 24.1631 88.8408 25.7061V26.9805C88.8408 28.5234 88.6162 29.915 88.167 31.1553C87.7178 32.3857 87.0684 33.4355 86.2188 34.3047C85.3789 35.1738 84.3633 35.8428 83.1719 36.3115C81.9902 36.7705 80.6572 37 79.1729 37ZM76.2285 15.6719V37H73.4014V15.6719H76.2285ZM95.916 15.6719V37H93.0889V15.6719H95.916ZM104.852 25.2666V27.5811H95.3008V25.2666H104.852ZM106.302 15.6719V17.9863H95.3008V15.6719H106.302ZM125.154 18.9092L119.075 37H114.812L122.781 15.6719H125.506L125.154 18.9092ZM130.237 37L124.129 18.9092L123.763 15.6719H126.502L134.515 37H130.237ZM129.959 29.0752V32.2539H118.519V29.0752H129.959ZM141.004 15.6719V37H136.976V15.6719H141.004Z" fill="black"/>
</svg>
